<svg width="24" height="23" viewBox="0 0 24 23" fill="none" xmlns="http://www.w3.org/2000/svg">
<path d="M22.0653 8.32632H21.6182L19.8746 2.13232C19.5855 1.10546 18.5152 0.505259 17.488 0.794241L1.41071 5.31969C0.383842 5.60872 -0.216456 6.67932 0.0725743 7.70624L2.60738 16.7114C2.73791 17.1751 3.03013 17.5644 3.42843 17.8176V19.6162C3.42843 20.683 4.29636 21.5509 5.36314 21.5509H22.0653C23.1321 21.5509 24 20.683 24 19.6162C24 17.4908 24 12.1568 24 10.261C24 9.19425 23.1321 8.32632 22.0653 8.32632ZM23.0204 10.261V11.2651H4.40803V10.261C4.40803 9.7344 4.83651 9.30592 5.36314 9.30592H22.0653C22.5919 9.30592 23.0204 9.7344 23.0204 10.261ZM23.0204 13.7141H4.40803V12.2447H23.0204V13.7141ZM1.01554 7.44082C0.872857 6.93387 1.16919 6.40533 1.67613 6.26265L17.7535 1.73715C18.2606 1.59443 18.789 1.89085 18.9317 2.39775L19.1174 3.05736L11.127 5.40741C10.8676 5.48377 10.719 5.756 10.7954 6.01555C10.8716 6.2747 11.1436 6.42365 11.4035 6.34724L19.3829 4.00037L19.6642 4.9998L14.9475 6.38706C14.688 6.46342 14.5395 6.73565 14.6158 6.9952C14.6922 7.25479 14.9645 7.40315 15.2239 7.32689L19.9296 5.94286L20.6005 8.32632H5.36314C4.29636 8.32632 3.42843 9.19425 3.42843 10.261C3.42843 10.8637 3.42843 15.3465 3.42843 16.0129L1.01554 7.44082ZM22.0653 20.5713H5.36314C4.83651 20.5713 4.40803 20.1428 4.40803 19.6162C4.40803 18.5029 4.40803 15.7938 4.40803 14.6937H23.0204V19.6162C23.0204 20.1428 22.5919 20.5713 22.0653 20.5713Z" fill="black"/>
<path d="M21.0614 17.1436C20.6853 17.1436 20.342 17.2857 20.0818 17.5189C19.8216 17.2857 19.4783 17.1436 19.1022 17.1436C18.292 17.1436 17.6328 17.8027 17.6328 18.613C17.6328 19.4232 18.292 20.0824 19.1022 20.0824C19.4783 20.0824 19.8216 19.9402 20.0818 19.707C20.342 19.9402 20.6853 20.0824 21.0614 20.0824C21.8716 20.0824 22.5308 19.4232 22.5308 18.613C22.5308 17.8027 21.8716 17.1436 21.0614 17.1436ZM19.1022 19.1028C18.8321 19.1028 18.6124 18.883 18.6124 18.613C18.6124 18.3429 18.8321 18.1232 19.1022 18.1232C19.3723 18.1232 19.592 18.3429 19.592 18.613C19.592 18.883 19.3723 19.1028 19.1022 19.1028ZM21.0614 19.1028C20.7913 19.1028 20.5716 18.883 20.5716 18.613C20.5716 18.3429 20.7913 18.1232 21.0614 18.1232C21.3315 18.1232 21.5512 18.3429 21.5512 18.613C21.5512 18.883 21.3315 19.1028 21.0614 19.1028Z" fill="black"/>
<path d="M5.87261 15.6729C5.6021 15.6729 5.38281 15.8922 5.38281 16.1627V16.6525C5.38281 16.9229 5.6021 17.1422 5.87261 17.1422C6.14313 17.1422 6.36241 16.9229 6.36241 16.6525V16.1627C6.36241 15.8922 6.14313 15.6729 5.87261 15.6729Z" fill="black"/>
<path d="M7.34527 15.6729C7.07475 15.6729 6.85547 15.8922 6.85547 16.1627V16.6525C6.85547 16.9229 7.07475 17.1422 7.34527 17.1422C7.61578 17.1422 7.83507 16.9229 7.83507 16.6525V16.1627C7.83507 15.8922 7.61578 15.6729 7.34527 15.6729Z" fill="black"/>
<path d="M8.81792 15.6729C8.54741 15.6729 8.32812 15.8922 8.32812 16.1627V16.6525C8.32812 16.9229 8.54741 17.1422 8.81792 17.1422C9.08844 17.1422 9.30772 16.9229 9.30772 16.6525V16.1627C9.30772 15.8922 9.08844 15.6729 8.81792 15.6729Z" fill="black"/>
<path d="M10.2906 15.6729C10.0201 15.6729 9.80078 15.8922 9.80078 16.1627V16.6525C9.80078 16.9229 10.0201 17.1422 10.2906 17.1422C10.5611 17.1422 10.7804 16.9229 10.7804 16.6525V16.1627C10.7804 15.8922 10.5611 15.6729 10.2906 15.6729Z" fill="black"/>
<path d="M8.81792 17.6328C8.54741 17.6328 8.32812 17.8521 8.32812 18.1226V18.6124C8.32812 18.8829 8.54741 19.1022 8.81792 19.1022C9.08844 19.1022 9.30772 18.8829 9.30772 18.6124V18.1226C9.30772 17.8521 9.08844 17.6328 8.81792 17.6328Z" fill="black"/>
<path d="M10.2906 17.6328C10.0201 17.6328 9.80078 17.8521 9.80078 18.1226V18.6124C9.80078 18.8829 10.0201 19.1022 10.2906 19.1022C10.5611 19.1022 10.7804 18.8829 10.7804 18.6124V18.1226C10.7804 17.8521 10.5611 17.6328 10.2906 17.6328Z" fill="black"/>
<path d="M11.7554 17.6328C11.4849 17.6328 11.2656 17.8521 11.2656 18.1226V18.6124C11.2656 18.8829 11.4849 19.1022 11.7554 19.1022C12.0259 19.1022 12.2452 18.8829 12.2452 18.6124V18.1226C12.2452 17.8521 12.0259 17.6328 11.7554 17.6328Z" fill="black"/>
<path d="M13.2242 17.6328C12.9537 17.6328 12.7344 17.8521 12.7344 18.1226V18.6124C12.7344 18.8829 12.9537 19.1022 13.2242 19.1022C13.4946 19.1022 13.714 18.8829 13.714 18.6124V18.1226C13.714 17.8521 13.4946 17.6328 13.2242 17.6328Z" fill="black"/>
<path d="M13.2257 16.6525V16.1627C13.2257 15.8922 13.0064 15.6729 12.7359 15.6729C12.4654 15.6729 12.2461 15.8922 12.2461 16.1627V16.6525C12.2461 16.9229 12.4654 17.1422 12.7359 17.1422C13.0064 17.1422 13.2257 16.9229 13.2257 16.6525Z" fill="black"/>
<path d="M14.2007 15.6729C13.9303 15.6729 13.7109 15.8922 13.7109 16.1627V16.6525C13.7109 16.9229 13.9303 17.1422 14.2007 17.1422C14.4712 17.1422 14.6905 16.9229 14.6905 16.6525V16.1627C14.6905 15.8922 14.4712 15.6729 14.2007 15.6729Z" fill="black"/>
<path d="M15.6734 15.6729C15.4029 15.6729 15.1836 15.8922 15.1836 16.1627V16.6525C15.1836 16.9229 15.4029 17.1422 15.6734 17.1422C15.9439 17.1422 16.1632 16.9229 16.1632 16.6525V16.1627C16.1632 15.8922 15.9439 15.6729 15.6734 15.6729Z" fill="black"/>
<path d="M17.6358 16.1627C17.6358 15.8922 17.4165 15.6729 17.146 15.6729C16.8756 15.6729 16.6562 15.8922 16.6562 16.1627V16.6525C16.6562 16.9229 16.8756 17.1422 17.146 17.1422C17.4165 17.1422 17.6358 16.9229 17.6358 16.6525V16.1627Z" fill="black"/>
<path d="M5.87261 2.44933C6.14312 2.44933 6.36241 2.23003 6.36241 1.95953C6.36241 1.68902 6.14312 1.46973 5.87261 1.46973C5.6021 1.46973 5.38281 1.68902 5.38281 1.95953C5.38281 2.23003 5.6021 2.44933 5.87261 2.44933Z" fill="black"/>
<path d="M10.7789 0.979598C11.0494 0.979598 11.2687 0.760308 11.2687 0.489799C11.2687 0.219291 11.0494 0 10.7789 0C10.5084 0 10.2891 0.219291 10.2891 0.489799C10.2891 0.760308 10.5084 0.979598 10.7789 0.979598Z" fill="black"/>
<path d="M22.0406 4.89854C22.3111 4.89854 22.5304 4.67925 22.5304 4.40874C22.5304 4.13824 22.3111 3.91895 22.0406 3.91895C21.7701 3.91895 21.5508 4.13824 21.5508 4.40874C21.5508 4.67925 21.7701 4.89854 22.0406 4.89854Z" fill="black"/>
<path d="M1.96246 18.6124C2.23296 18.6124 2.45225 18.3931 2.45225 18.1226C2.45225 17.8521 2.23296 17.6328 1.96246 17.6328C1.69195 17.6328 1.47266 17.8521 1.47266 18.1226C1.47266 18.3931 1.69195 18.6124 1.96246 18.6124Z" fill="black"/>
<path d="M9.79449 6.85753C10.065 6.85753 10.2843 6.63824 10.2843 6.36773C10.2843 6.09722 10.065 5.87793 9.79449 5.87793C9.52398 5.87793 9.30469 6.09722 9.30469 6.36773C9.30469 6.63824 9.52398 6.85753 9.79449 6.85753Z" fill="black"/>
<path d="M22.0358 2.9388C22.846 2.9388 23.5052 2.27962 23.5052 1.4694C23.5052 0.659172 22.846 0 22.0358 0C21.2256 0 20.5664 0.659172 20.5664 1.4694C20.5664 2.27962 21.2256 2.9388 22.0358 2.9388ZM22.0358 0.979598C22.3059 0.979598 22.5256 1.19932 22.5256 1.4694C22.5256 1.73947 22.3059 1.9592 22.0358 1.9592C21.7657 1.9592 21.546 1.73947 21.546 1.4694C21.546 1.19932 21.7657 0.979598 22.0358 0.979598Z" fill="black"/>
<path d="M2.20106 20.0811C1.52587 20.0811 0.976562 20.6304 0.976562 21.3056C0.976562 21.9807 1.52587 22.5301 2.20106 22.5301C2.87625 22.5301 3.42556 21.9807 3.42556 21.3056C3.42556 20.6304 2.87625 20.0811 2.20106 20.0811ZM2.20106 21.5505C2.06602 21.5505 1.95616 21.4406 1.95616 21.3056C1.95616 21.1705 2.06602 21.0607 2.20106 21.0607C2.3361 21.0607 2.44596 21.1705 2.44596 21.3056C2.44596 21.4406 2.3361 21.5505 2.20106 21.5505Z" fill="black"/>
<path d="M2.69715 2.93825C3.37234 2.93825 3.92165 2.38894 3.92165 1.71376C3.92165 1.03857 3.37234 0.489258 2.69715 0.489258C2.02197 0.489258 1.47266 1.03857 1.47266 1.71376C1.47266 2.38894 2.02197 2.93825 2.69715 2.93825ZM2.69715 1.46886C2.83219 1.46886 2.94205 1.57872 2.94205 1.71376C2.94205 1.84879 2.83219 1.95866 2.69715 1.95866C2.56212 1.95866 2.45225 1.84879 2.45225 1.71376C2.45225 1.57872 2.56212 1.46886 2.69715 1.46886Z" fill="black"/>
</svg>
