<svg width="24" height="28" viewBox="0 0 24 28" fill="none" xmlns="http://www.w3.org/2000/svg">
<g clip-path="url(#clip0_619_5170)">
<path d="M19.931 7.72492L13.9726 4.26852C12.7314 3.54851 11.1997 3.54851 9.95841 4.26852L4 7.72492" stroke="white" stroke-linecap="round"/>
<path d="M8.91755 13.0229H7.08941V9.6582H6.61665V13.4484H8.91755V13.0229ZM9.91045 13.4484V9.6582H9.43762V13.4484H9.91045ZM12.2087 13.4484L13.6061 9.6582H13.1096L11.9828 12.8732H11.9671L10.8402 9.6582H10.3438L11.7412 13.4484H12.2087ZM16.3877 13.0229H14.5122V11.7201H16.2905V11.2999H14.5122V10.0837H16.3877V9.6582H14.0395V13.4484H16.3877V13.0229ZM4.85156 16.072V19.8622H6.12547C7.25231 19.8622 7.91417 19.1609 7.91417 17.9658C7.91417 16.7733 7.24969 16.072 6.12547 16.072H4.85156ZM5.32435 16.4975H6.09395C6.95548 16.4975 7.43093 17.0228 7.43093 17.971C7.43093 18.9114 6.95286 19.4367 6.09395 19.4367H5.32435V16.4975ZM10.8507 19.4367H8.97534V18.1339H10.7536V17.7137H8.97534V16.4975H10.8507V16.072H8.50258V19.8622H10.8507V19.4367ZM15.2109 19.8622V16.072H14.662L13.3539 19.2344H13.3329L12.0249 16.072H11.4759V19.8622H11.9171V16.9414H11.9356L13.1438 19.8359H13.5431L14.7513 16.9414H14.7697V19.8622H15.2109ZM17.546 16.009C16.4717 16.009 15.7993 16.7654 15.7993 17.9684C15.7993 19.1714 16.4717 19.9252 17.546 19.9252C18.6203 19.9252 19.2927 19.1714 19.2927 17.9684C19.2927 16.7654 18.6203 16.009 17.546 16.009ZM17.546 16.445C18.3209 16.445 18.8068 17.0333 18.8068 17.9684C18.8068 18.9009 18.3209 19.4892 17.546 19.4892C16.7711 19.4892 16.2852 18.9009 16.2852 17.9684C16.2852 17.0333 16.7711 16.445 17.546 16.445Z" fill="white"/>
<path d="M13.9131 1.30381L21.8583 5.89096C23.0426 6.5747 23.7721 7.83828 23.7721 9.20573V18.3801C23.7721 19.7475 23.0426 21.0111 21.8583 21.6948L13.9131 26.282C12.7288 26.9657 11.2698 26.9657 10.0855 26.282L2.14035 21.6948C0.956099 21.0111 0.226562 19.7475 0.226562 18.3801V9.20573C0.226562 7.83828 0.956099 6.5747 2.14035 5.89096L10.0855 1.30381C11.2698 0.620083 12.7288 0.620083 13.9131 1.30381Z" stroke="white"/>
</g>
<defs>
<clipPath id="clip0_619_5170">
<rect width="24" height="27.5862" fill="white"/>
</clipPath>
</defs>
</svg>
