<svg width="93" height="65" viewBox="0 0 93 65" fill="none" xmlns="http://www.w3.org/2000/svg">
<path d="M91.7809 29.9902L77.3031 15.5124L70.5983 22.2169L78.3706 29.9893C79.7502 31.3692 79.7501 33.6279 78.3693 35.0087L70.597 42.7811L62.8246 50.5535C62.1346 51.2435 61.2253 51.5882 60.3155 51.5882C59.4057 51.5882 58.496 51.2435 57.806 50.5535L53.1124 45.8599L63.9636 35.0087C65.3444 33.6279 65.3435 31.3701 63.9636 29.9902L53.1111 19.1377L53.1128 19.1394L57.8069 14.4454C59.1877 13.0646 61.4468 13.0658 62.8263 14.4454L70.5983 22.2169L77.3023 15.5133L62.825 1.03469C61.4455 -0.344824 59.1877 -0.344824 57.8069 1.03469L46.4079 12.4336L46.4105 12.4362L35.009 1.03512C33.629 -0.344392 31.3708 -0.345685 29.9904 1.03512L15.5127 15.5128L1.03496 29.9906C-0.344985 31.3705 -0.344985 33.6296 1.03496 35.0096L15.5127 49.4873L29.9904 63.965C31.3704 65.345 33.629 65.345 35.009 63.965L46.4079 52.5661L57.8069 63.965C58.4968 64.655 59.4066 64.9998 60.3164 64.9998C61.2261 64.9998 62.1359 64.6546 62.8258 63.965L77.3036 49.4873L91.7813 35.0096C93.1617 33.6283 93.1604 31.3701 91.7809 29.9902ZM50.5546 29.9897C51.8299 31.2649 51.9255 33.2905 50.8429 34.6803L46.3877 39.1356L42.2621 35.01C42.2229 34.9708 42.1849 34.9303 42.1479 34.8898C42.1405 34.8816 42.1332 34.8734 42.1259 34.8652C42.0539 34.7846 41.9862 34.7014 41.9229 34.6157C41.9143 34.6045 41.9061 34.5928 41.8979 34.5816C41.8716 34.545 41.8458 34.5079 41.8208 34.4709C41.8156 34.4635 41.8104 34.4558 41.8057 34.4485C41.7798 34.4088 41.7548 34.3683 41.7307 34.3278C41.7208 34.311 41.7109 34.2942 41.7014 34.2774C41.6846 34.2481 41.6682 34.2183 41.6523 34.1886C41.6393 34.1649 41.6268 34.1408 41.6143 34.1166C41.5993 34.0865 41.5842 34.0563 41.5699 34.0261C41.5592 34.0033 41.5488 33.9804 41.5385 33.9576C41.529 33.936 41.5195 33.9145 41.5105 33.8925C41.4928 33.8511 41.4764 33.8093 41.4605 33.7671C41.4536 33.7486 41.4463 33.73 41.4398 33.7115C41.4299 33.6835 41.4204 33.6555 41.4109 33.6275C41.4057 33.6115 41.4006 33.5956 41.3954 33.5796C41.3786 33.5266 41.3631 33.4732 41.3489 33.4193C41.0343 32.2337 41.3385 30.915 42.2629 29.9902L46.4101 25.8443L46.4079 25.8421L50.5546 29.9897ZM29.9904 50.5539L22.218 42.7815L14.4456 35.0096C13.0661 33.6296 13.0657 31.3705 14.4456 29.9906L22.218 22.2182L29.9904 14.4458C31.3712 13.065 33.6299 13.065 35.0098 14.4449L39.7056 19.1407L39.7039 19.139L28.8514 29.9902C27.9347 30.9068 27.6279 32.2118 27.9296 33.3896C27.9313 33.3965 27.9334 33.4038 27.9352 33.4107C27.9503 33.4684 27.9671 33.5258 27.9852 33.5826C27.9899 33.5969 27.9942 33.6115 27.999 33.6257C28.0084 33.6546 28.0183 33.6835 28.0287 33.7124C28.0347 33.7292 28.0412 33.746 28.0476 33.7628C28.064 33.8068 28.0817 33.8499 28.0998 33.8934C28.1088 33.9145 28.1179 33.936 28.1274 33.9572C28.1377 33.98 28.1481 34.0033 28.1588 34.0261C28.1735 34.0567 28.1886 34.0873 28.2041 34.1179C28.2162 34.1412 28.2282 34.1644 28.2407 34.1873C28.2571 34.2179 28.2739 34.2481 28.2911 34.2778C28.3006 34.2942 28.3101 34.3105 28.3196 34.3265C28.3446 34.3683 28.37 34.4097 28.3967 34.4502C28.4006 34.4562 28.4049 34.4618 28.4088 34.4678C28.4342 34.5062 28.4609 34.5441 28.4881 34.5816C28.4958 34.5924 28.504 34.6036 28.5118 34.6144C28.5751 34.7001 28.6432 34.7838 28.7152 34.8643C28.7225 34.8725 28.7299 34.8807 28.7376 34.8893C28.7747 34.9298 28.8122 34.9704 28.8514 35.0096L39.6823 45.8405L34.6806 50.8423C33.2916 51.9248 31.2656 51.8292 29.9904 50.5539Z" fill="url(#paint0_linear_1670_1430)"/>
<defs>
<linearGradient id="paint0_linear_1670_1430" x1="1" y1="31" x2="188.5" y2="31.5" gradientUnits="userSpaceOnUse">
<stop stop-color="#0770E8"/>
<stop offset="1" stop-color="#0770E8" stop-opacity="0"/>
</linearGradient>
</defs>
</svg>
