<svg width="32" height="65" viewBox="0 0 32 65" fill="none" xmlns="http://www.w3.org/2000/svg">
<path d="M31.201 7.31836C31.3063 11.12 29.7142 13.5794 26.4762 15.4772C22.5114 17.8024 18.4166 20.1936 14.4249 22.4899C10.0017 25.034 8.90103 28.1459 12.077 32.2491C11.0445 34.5123 7.4452 34.0973 5.45867 33.7689C3.23467 32.4164 2.58626 29.4593 2.71223 27.0391C2.89188 23.6009 4.71528 20.3279 7.21186 18.0006C15.191 11.9873 23.1784 5.98437 31.1782 0C31.1803 2.43876 31.1865 4.87959 31.201 7.31836Z" fill="url(#paint0_linear_1670_1424)"/>
<path d="M12.0765 32.2491C12.0765 32.2491 11.5933 31.8588 10.7983 31.1485C7.02759 27.7866 2.10463 22.587 7.21344 18.0006C5.53047 19.2768 4.12214 20.8173 2.90792 22.4424C-0.705833 27.2828 -0.0037326 35.0678 0.171792 40.8767C0.254392 43.6686 3.55426 44.2881 5.6523 43.173C7.96304 41.9443 10.4266 40.5649 12.663 39.361C16.0909 37.5149 14.4038 34.1221 12.0765 32.2491Z" fill="url(#paint1_linear_1670_1424)"/>
<path d="M0.290064 57.6816C0.184749 53.88 1.7748 51.4206 5.01478 49.5228C8.97958 47.1997 13.0765 44.8043 17.0661 42.5101C21.4873 39.966 22.59 36.8541 19.414 32.7509C20.4465 30.4877 24.0458 30.9027 26.0324 31.2311C28.2564 32.5836 28.9027 35.5407 28.7788 37.9609C28.6012 41.397 26.7758 44.6721 24.2792 46.9994C16.3 53.0127 8.31259 59.0156 0.312779 65C0.310714 62.5592 0.304519 60.1204 0.290064 57.6816Z" fill="url(#paint2_linear_1670_1424)"/>
<path d="M19.4145 32.7509C19.4145 32.7509 19.8978 33.1412 20.6928 33.8516C24.4655 37.2154 29.3864 42.411 24.2776 46.9994C25.9606 45.7253 27.3669 44.1827 28.5811 42.5576C32.1969 37.7172 31.4948 29.9301 31.3193 24.1233C31.2346 21.3294 27.9368 20.712 25.8388 21.8271C23.528 23.0557 21.0645 24.4352 18.8281 25.6391C15.4002 27.4872 17.0873 30.8759 19.4145 32.7509Z" fill="url(#paint3_linear_1670_1424)"/>
<defs>
<linearGradient id="paint0_linear_1670_1424" x1="34.8385" y1="18.0488" x2="3.12688" y2="15.9143" gradientUnits="userSpaceOnUse">
<stop stop-color="#00C4FF"/>
<stop offset="1" stop-color="#001973"/>
</linearGradient>
<linearGradient id="paint1_linear_1670_1424" x1="17.2932" y1="31.6587" x2="-0.01067" y2="30.494" gradientUnits="userSpaceOnUse">
<stop stop-color="#001973"/>
<stop offset="1" stop-color="#00C4FF"/>
</linearGradient>
<linearGradient id="paint2_linear_1670_1424" x1="-3.34758" y1="46.9511" x2="28.3637" y2="49.0855" gradientUnits="userSpaceOnUse">
<stop stop-color="#00C4FF"/>
<stop offset="1" stop-color="#001973"/>
</linearGradient>
<linearGradient id="paint3_linear_1670_1424" x1="14.1978" y1="33.3412" x2="31.5023" y2="34.5059" gradientUnits="userSpaceOnUse">
<stop stop-color="#001973"/>
<stop offset="1" stop-color="#00C4FF"/>
</linearGradient>
</defs>
</svg>
