<svg width="24" height="24" viewBox="0 0 24 24" fill="none" xmlns="http://www.w3.org/2000/svg">
<mask id="path-1-inside-1_590_1259" fill="white">
<path d="M3.20078 1.53189e-06C1.43491 1.53189e-06 0 1.41928 0 3.20078V19.6008C1.51181e-05 19.7072 0.0424818 19.8093 0.117921 19.8844L3.31637 23.082C3.3912 23.1573 3.49298 23.1998 3.59917 23.2H15.2617C16.1221 23.7051 17.133 24 18.2007 24C21.3992 24 24 21.4037 24 18.2008C24 15.0565 21.5065 12.5078 18.3999 12.4023L18.3984 6H23.5984C23.8206 6.00084 24.0008 5.82056 24 5.59844V3.20078C24 1.4349 22.5784 0 20.7992 0L3.20078 1.53189e-06ZM3.20078 0.800784H18.6805C18.0139 1.38764 17.5983 2.24426 17.5984 3.20078L17.5999 12.4305C14.671 12.7343 12.3984 15.2057 12.3984 18.2008C12.3984 19.8535 13.0867 21.3428 14.1998 22.4H4.39996V19.1992C4.39908 18.9795 4.2212 18.8017 4.00152 18.8008H0.800731V3.20078C0.800731 1.86868 1.86421 0.800784 3.20073 0.800784H3.20078ZM20.7992 0.800784C22.1291 0.800784 23.2 1.86426 23.2 3.20078V5.2H18.3984V3.20078C18.3984 1.86426 19.476 0.800784 20.7992 0.800784V0.800784ZM4.39609 2.40625C4.17394 2.40882 4.00078 2.58547 4.00078 2.80625V3.21172C3.20088 3.31437 2.6 3.98847 2.6 4.79922C2.6 5.60997 3.20043 6.28834 4.00078 6.3875V8H3.37968C2.84583 8 2.84583 8.80078 3.37968 8.80078H4.00078V9.20469C4.00078 9.74127 4.80079 9.73749 4.80079 9.20469V8.78828C5.58551 8.68756 6.2 8.02637 6.2 7.2C6.2 6.38927 5.60096 5.71388 4.80079 5.61094L4.8 3.99922H5.39922C5.94452 4.01131 5.94452 3.18712 5.39922 3.19922H4.80079V2.80625C4.80079 2.58031 4.62192 2.40358 4.39609 2.40625V2.40625ZM7.59999 4C7.06654 4 7.06654 4.8 7.59999 4.8H11.2C11.7335 4.8 11.7335 4 11.2 4H7.59999ZM4.0008 5.57344C3.64768 5.48795 3.4008 5.16506 3.4008 4.79922C3.4008 4.4287 3.6516 4.11205 4.00001 4.025L4.0008 5.57344ZM7.59999 6.4C7.06654 6.4 7.06654 7.2 7.59999 7.2H14.8C15.3335 7.2 15.3335 6.4 14.8 6.4H7.59999ZM4.80079 6.42501C5.14961 6.51178 5.40078 6.8292 5.40078 7.2C5.40078 7.6271 5.08555 7.9101 4.80079 7.97344V6.42501ZM7.59999 8.8C7.06654 8.8 7.06654 9.6 7.59999 9.6H14.8C15.3335 9.6 15.3335 8.8 14.8 8.8H7.59999ZM7.59999 11.2C7.06654 11.2 7.06654 12 7.59999 12H14.8C15.3335 12 15.3335 11.2 14.8 11.2H7.59999ZM18.2008 13.1992C20.9537 13.1992 23.2 15.4346 23.2 18.2008C23.2 20.9669 20.9515 23.2 18.2008 23.2C15.4501 23.2 13.1992 20.9669 13.1992 18.2008C13.1992 15.4479 15.4346 13.1992 18.2008 13.1992ZM20.7871 15.1997C20.6821 15.202 20.5873 15.2458 20.5141 15.3211L15.3195 20.5156C14.9451 20.8963 15.5016 21.4583 15.8828 21.0828L21.0828 15.8828C21.3431 15.6291 21.152 15.1897 20.7871 15.1997V15.1997ZM15.2 16.4C15.2 17.058 15.7325 17.6 16.4016 17.6C17.0706 17.6 17.6 17.058 17.6 16.4C17.6 15.742 17.0706 15.2008 16.4016 15.2008C15.7325 15.2008 15.2 15.742 15.2 16.4ZM16.3984 16C16.6153 16 16.8 16.1728 16.8 16.3984C16.8 16.6241 16.6178 16.8 16.3984 16.8C16.179 16.8 16 16.6241 16 16.3984C16 16.1728 16.1816 16 16.3984 16ZM19.9984 18.8C19.3357 18.8 18.8 19.3404 18.8 19.9984C18.8 20.6564 19.3326 21.2 19.9984 21.2C20.6642 21.2 21.2 20.6609 21.2 19.9984C21.2 19.336 20.6596 18.8 19.9984 18.8ZM0.96641 19.6008H3.59921V22.2344L0.96641 19.6008ZM19.9984 19.6008C20.2178 19.6008 20.4 19.7736 20.4 19.9992C20.4 20.2249 20.2147 20.4 19.9984 20.4C19.7822 20.4 19.6 20.2249 19.6 19.9992C19.6 19.7845 19.779 19.6008 19.9984 19.6008Z"/>
</mask>
<path d="M3.20078 1.53189e-06C1.43491 1.53189e-06 0 1.41928 0 3.20078V19.6008C1.51181e-05 19.7072 0.0424818 19.8093 0.117921 19.8844L3.31637 23.082C3.3912 23.1573 3.49298 23.1998 3.59917 23.2H15.2617C16.1221 23.7051 17.133 24 18.2007 24C21.3992 24 24 21.4037 24 18.2008C24 15.0565 21.5065 12.5078 18.3999 12.4023L18.3984 6H23.5984C23.8206 6.00084 24.0008 5.82056 24 5.59844V3.20078C24 1.4349 22.5784 0 20.7992 0L3.20078 1.53189e-06ZM3.20078 0.800784H18.6805C18.0139 1.38764 17.5983 2.24426 17.5984 3.20078L17.5999 12.4305C14.671 12.7343 12.3984 15.2057 12.3984 18.2008C12.3984 19.8535 13.0867 21.3428 14.1998 22.4H4.39996V19.1992C4.39908 18.9795 4.2212 18.8017 4.00152 18.8008H0.800731V3.20078C0.800731 1.86868 1.86421 0.800784 3.20073 0.800784H3.20078ZM20.7992 0.800784C22.1291 0.800784 23.2 1.86426 23.2 3.20078V5.2H18.3984V3.20078C18.3984 1.86426 19.476 0.800784 20.7992 0.800784V0.800784ZM4.39609 2.40625C4.17394 2.40882 4.00078 2.58547 4.00078 2.80625V3.21172C3.20088 3.31437 2.6 3.98847 2.6 4.79922C2.6 5.60997 3.20043 6.28834 4.00078 6.3875V8H3.37968C2.84583 8 2.84583 8.80078 3.37968 8.80078H4.00078V9.20469C4.00078 9.74127 4.80079 9.73749 4.80079 9.20469V8.78828C5.58551 8.68756 6.2 8.02637 6.2 7.2C6.2 6.38927 5.60096 5.71388 4.80079 5.61094L4.8 3.99922H5.39922C5.94452 4.01131 5.94452 3.18712 5.39922 3.19922H4.80079V2.80625C4.80079 2.58031 4.62192 2.40358 4.39609 2.40625V2.40625ZM7.59999 4C7.06654 4 7.06654 4.8 7.59999 4.8H11.2C11.7335 4.8 11.7335 4 11.2 4H7.59999ZM4.0008 5.57344C3.64768 5.48795 3.4008 5.16506 3.4008 4.79922C3.4008 4.4287 3.6516 4.11205 4.00001 4.025L4.0008 5.57344ZM7.59999 6.4C7.06654 6.4 7.06654 7.2 7.59999 7.2H14.8C15.3335 7.2 15.3335 6.4 14.8 6.4H7.59999ZM4.80079 6.42501C5.14961 6.51178 5.40078 6.8292 5.40078 7.2C5.40078 7.6271 5.08555 7.9101 4.80079 7.97344V6.42501ZM7.59999 8.8C7.06654 8.8 7.06654 9.6 7.59999 9.6H14.8C15.3335 9.6 15.3335 8.8 14.8 8.8H7.59999ZM7.59999 11.2C7.06654 11.2 7.06654 12 7.59999 12H14.8C15.3335 12 15.3335 11.2 14.8 11.2H7.59999ZM18.2008 13.1992C20.9537 13.1992 23.2 15.4346 23.2 18.2008C23.2 20.9669 20.9515 23.2 18.2008 23.2C15.4501 23.2 13.1992 20.9669 13.1992 18.2008C13.1992 15.4479 15.4346 13.1992 18.2008 13.1992ZM20.7871 15.1997C20.6821 15.202 20.5873 15.2458 20.5141 15.3211L15.3195 20.5156C14.9451 20.8963 15.5016 21.4583 15.8828 21.0828L21.0828 15.8828C21.3431 15.6291 21.152 15.1897 20.7871 15.1997V15.1997ZM15.2 16.4C15.2 17.058 15.7325 17.6 16.4016 17.6C17.0706 17.6 17.6 17.058 17.6 16.4C17.6 15.742 17.0706 15.2008 16.4016 15.2008C15.7325 15.2008 15.2 15.742 15.2 16.4ZM16.3984 16C16.6153 16 16.8 16.1728 16.8 16.3984C16.8 16.6241 16.6178 16.8 16.3984 16.8C16.179 16.8 16 16.6241 16 16.3984C16 16.1728 16.1816 16 16.3984 16ZM19.9984 18.8C19.3357 18.8 18.8 19.3404 18.8 19.9984C18.8 20.6564 19.3326 21.2 19.9984 21.2C20.6642 21.2 21.2 20.6609 21.2 19.9984C21.2 19.336 20.6596 18.8 19.9984 18.8ZM0.96641 19.6008H3.59921V22.2344L0.96641 19.6008ZM19.9984 19.6008C20.2178 19.6008 20.4 19.7736 20.4 19.9992C20.4 20.2249 20.2147 20.4 19.9984 20.4C19.7822 20.4 19.6 20.2249 19.6 19.9992C19.6 19.7845 19.779 19.6008 19.9984 19.6008Z" fill="black" stroke="black" stroke-width="4" mask="url(#path-1-inside-1_590_1259)"/>
</svg>
