<svg width="24" height="20" viewBox="0 0 24 20" fill="none" xmlns="http://www.w3.org/2000/svg">
<path d="M23.6911 8.32568L12.4412 0.143999C12.178 -0.0479996 11.8217 -0.0479996 11.5585 0.143999L0.308558 8.32568C-0.0259391 8.56868 -0.100188 9.03818 0.14356 9.37268C0.387308 9.70792 0.855304 9.78067 1.1913 9.53842L2.67179 8.46143V18.7498C2.67179 19.1646 3.00779 19.4998 3.42178 19.4998H9.47798C9.89198 19.4998 10.228 19.1646 10.228 18.7498V11.7052H13.7717V18.7498C13.7717 19.1646 14.1077 19.4998 14.5217 19.4998H20.5779C20.9919 19.4998 21.3279 19.1646 21.3279 18.7498V8.46218L22.8084 9.53917C22.9419 9.63592 23.0964 9.68242 23.2486 9.68242C23.4804 9.68242 23.7091 9.57517 23.8561 9.37342C24.1006 9.03893 24.0256 8.56943 23.6911 8.32568ZM19.8279 18.0006H15.2717V10.9559C15.2717 10.5412 14.9357 10.2059 14.5217 10.2059H9.47798C9.06399 10.2059 8.72799 10.5412 8.72799 10.9559V18.0006H4.17178V7.37094L12.0002 1.67774L19.8287 7.37094V18.0006H19.8279Z" fill="black"/>
</svg>
