<svg width="24" height="27" viewBox="0 0 24 27" fill="none" xmlns="http://www.w3.org/2000/svg">
<path d="M23.6377 1.33295L22.2159 0.977498V0.933067C22.2603 0.710908 22.0826 0.488749 21.8604 0.444318L19.6388 0C19.5944 0 19.5944 0 19.55 0H6.22045C5.95385 0 5.77613 0.177727 5.77613 0.444318V6.04272L2.39931 9.41953C0.844203 10.9746 0 13.0185 0 15.1957V23.5488V26.2147C0 26.4813 0.177727 26.6591 0.444318 26.6591H8.88635H19.55C19.7721 26.6591 19.9499 26.4813 19.9943 26.3036L23.9931 1.86613C24.0376 1.59954 23.8599 1.42182 23.6377 1.33295ZM19.9943 0.977498L21.2828 1.24409L19.9943 8.84192V0.977498ZM19.1057 3.51011C17.7283 3.33238 16.6619 2.22159 16.4842 0.888635H19.1057V3.51011ZM9.28624 0.888635C9.10851 2.26602 7.99772 3.33238 6.66476 3.51011V0.888635H9.28624ZM3.02136 10.0416L5.77613 7.28681V15.9954C5.77613 16.1732 5.86499 16.3509 6.04272 16.3953C6.22045 16.4842 6.39817 16.4397 6.53147 16.3065L9.86385 12.9741C10.3082 12.5298 11.0191 12.5298 11.4634 12.9741C11.9077 13.4184 11.9077 14.1293 11.4634 14.5736L10.3526 15.6844C9.15294 16.8841 8.48646 18.528 8.48646 20.2164V23.1045H0.888635V15.1957C0.888635 13.2407 1.64397 11.419 3.02136 10.0416ZM12.0854 12.352C11.5523 11.8188 10.7969 11.6411 10.086 11.8633C10.6636 10.6192 11.9077 9.77499 13.3295 9.77499C15.2845 9.77499 16.8841 11.3745 16.8841 13.3295C16.8841 15.2845 15.2845 16.8841 13.3295 16.8841C12.5298 16.8841 11.7744 16.6175 11.1524 16.1287L12.0854 15.1957C12.8852 14.3959 12.8852 13.1518 12.0854 12.352ZM0.888635 23.9931H8.44203V25.7704H0.888635V23.9931ZM9.33067 23.5488V20.2609C9.33067 18.9724 9.77499 17.7727 10.5303 16.7952C11.3301 17.4172 12.3076 17.7727 13.3295 17.7727C15.7733 17.7727 17.7727 15.7733 17.7727 13.3295C17.7727 10.8858 15.7733 8.88635 13.3295 8.88635C11.1524 8.88635 9.28624 10.4859 8.93078 12.6186L6.66476 14.9291V4.39874C8.5309 4.17658 9.99714 2.71034 10.1749 0.888635H15.5511C15.7733 2.75477 17.2395 4.22102 19.0612 4.39874V22.2159C17.1951 22.438 15.7288 23.9043 15.5511 25.726H9.33067V23.5488ZM16.4842 25.7704C16.6619 24.393 17.7727 23.3267 19.1057 23.1489V25.7704H16.4842ZM19.9943 20.7496V14.2626L22.0381 1.86613L23.0156 2.13272L19.9943 20.7496Z" fill="black"/>
</svg>
