<svg width="24" height="25" viewBox="0 0 24 25" fill="none" xmlns="http://www.w3.org/2000/svg">
<path d="M5.89381 24.0059C5.81635 24.0059 5.73897 24.0013 5.66207 23.9921C5.37964 23.9584 5.10873 23.8603 4.87022 23.7053C4.63171 23.5504 4.43196 23.3427 4.28638 23.0984L3.01872 20.9859L0.908104 19.7192C0.664439 19.573 0.457289 19.3731 0.30238 19.1349C0.147471 18.8967 0.0488751 18.6263 0.0140778 18.3443C-0.0207196 18.0622 0.00919627 17.776 0.101554 17.5072C0.193912 17.2385 0.346283 16.9943 0.547102 16.7933L0.766842 16.5736C1.10084 16.2381 1.55032 16.043 2.02342 16.0279L3.85059 15.9605L9.53614 9.81515L2.87284 5.64932C2.63438 5.50014 2.43262 5.29914 2.28255 5.06124C2.13248 4.82335 2.03796 4.55468 2.00602 4.27523C1.97408 3.99577 2.00555 3.71271 2.09807 3.44709C2.1906 3.18147 2.34181 2.94013 2.54046 2.74099L3.24954 2.03192C3.51732 1.76569 3.85913 1.58636 4.23038 1.51735C4.60162 1.44834 4.98504 1.49285 5.33061 1.64506L13.6641 5.35572L16.9879 1.75493C17.6095 1.08113 18.4148 0.604161 19.3044 0.38294L20.5001 0.0837977C20.972 -0.033931 21.4663 -0.0275117 21.935 0.102431C22.4037 0.232374 22.8308 0.481416 23.1747 0.825328C23.5186 1.16924 23.7676 1.59631 23.8976 2.065C24.0275 2.53369 24.0339 3.02803 23.9162 3.49993L23.6171 4.70019C23.3972 5.58934 22.9222 6.39484 22.2506 7.01762L18.6572 10.3414L22.3605 18.6749C22.5124 19.0208 22.5567 19.4043 22.4875 19.7757C22.4183 20.1471 22.2389 20.489 21.9727 20.7569L21.2664 21.4642C21.0674 21.6632 20.826 21.8149 20.5603 21.9077C20.2946 22.0006 20.0113 22.0324 19.7316 22.0006C19.4519 21.9688 19.183 21.8744 18.9449 21.7243C18.7067 21.5742 18.5055 21.3723 18.3562 21.1336L14.1922 14.4703L8.04412 20.1559L7.97765 21.9858C7.9609 22.4579 7.76555 22.906 7.43107 23.2396L7.21225 23.4584C7.03954 23.6323 6.83411 23.7701 6.60781 23.8641C6.38151 23.9581 6.13884 24.0063 5.89381 24.0059V24.0059ZM4.58091 3.33374L3.8469 4.04651L11.4612 8.84017C11.5761 8.91249 11.6737 9.00928 11.7469 9.12362C11.8201 9.23796 11.8673 9.36705 11.8849 9.50169C11.9025 9.63633 11.8902 9.7732 11.8489 9.90255C11.8076 10.0319 11.7383 10.1505 11.6458 10.25L4.94468 17.4959C4.86188 17.5856 4.76214 17.6579 4.6512 17.7088C4.54027 17.7597 4.42035 17.788 4.29838 17.7923L2.08251 17.8726L1.84708 18.0997L4.16174 19.5225C4.29124 19.6003 4.39967 19.7088 4.4775 19.8383L5.86242 22.1465L6.11909 21.9323L6.21142 19.7035C6.21553 19.5816 6.24376 19.4617 6.29447 19.3508C6.34518 19.2398 6.41737 19.14 6.50686 19.0572L13.7564 12.3569C13.8559 12.2643 13.9746 12.1949 14.1041 12.1534C14.2335 12.112 14.3705 12.0997 14.5053 12.1173C14.64 12.135 14.7692 12.1821 14.8837 12.2555C14.9981 12.3288 15.0949 12.4265 15.1672 12.5416L19.923 20.1503L20.6727 19.42L16.7026 10.4827C16.6244 10.3065 16.6033 10.1103 16.6422 9.92159C16.6811 9.73284 16.7781 9.561 16.9196 9.43015L20.994 5.6604C21.4026 5.28193 21.6915 4.79216 21.825 4.25148L22.1241 3.05675C22.1645 2.894 22.1621 2.72357 22.1173 2.562C22.0724 2.40042 21.9865 2.25319 21.868 2.13457C21.7495 2.01595 21.6023 1.92997 21.4408 1.88497C21.2792 1.83997 21.1088 1.83747 20.946 1.87773L19.7578 2.17687C19.2171 2.3105 18.7274 2.59934 18.3488 3.00782L14.5754 7.08594C14.4445 7.22743 14.2727 7.32443 14.0839 7.36334C13.8952 7.40225 13.699 7.38112 13.5229 7.30291L4.58091 3.33374Z" fill="#1B1B1C"/>
</svg>
