<svg width="24" height="24" viewBox="0 0 24 24" fill="none" xmlns="http://www.w3.org/2000/svg">
<g clip-path="url(#clip0_613_5107)">
<path d="M21.6 9.59899H23.6C23.7061 9.59899 23.8078 9.55687 23.8828 9.48183C23.9578 9.40683 24 9.30507 24 9.19899V3.59898C23.9998 3.51194 23.9711 3.42735 23.9184 3.35803C23.8657 3.28871 23.7918 3.2385 23.708 3.21498L12.108 0.014997C12.0374 -0.004999 11.9626 -0.004999 11.892 0.014997L0.292 3.21498C0.208168 3.2385 0.134296 3.28871 0.081596 3.35803C0.028896 3.42735 0.000248 3.51194 0 3.59898V9.19899C0 9.30507 0.042144 9.40683 0.117156 9.48183C0.192172 9.55687 0.293912 9.59899 0.4 9.59899H2.4V19.199H1.2C1.09391 19.199 0.992172 19.2411 0.917156 19.3161C0.842144 19.3912 0.8 19.4929 0.8 19.599V20.799H0.4C0.293912 20.799 0.192172 20.8411 0.117156 20.9161C0.042144 20.9912 0 21.0929 0 21.199V23.599C0 23.7051 0.042144 23.8068 0.117156 23.8818C0.192172 23.9569 0.293912 23.999 0.4 23.999H23.6C23.7061 23.999 23.8078 23.9569 23.8828 23.8818C23.9578 23.8068 24 23.7051 24 23.599V21.199C24 21.0929 23.9578 20.9912 23.8828 20.9161C23.8078 20.8411 23.7061 20.799 23.6 20.799H23.2V19.599C23.2 19.4929 23.1578 19.3912 23.0828 19.3161C23.0078 19.2411 22.9061 19.199 22.8 19.199H21.6V9.59899ZM0.8 3.90299L12 0.814997L23.2 3.90299V7.19899H0.8V3.90299ZM23.2 21.599V23.199H0.8V21.599H23.2ZM22.4 19.999V20.799H1.6V19.999H22.4ZM5.6 11.199V17.599H3.2V11.199H5.6ZM3.2 10.399V9.59899H5.6V10.399H3.2ZM5.6 18.399V19.199H3.2V18.399H5.6ZM6.4 19.199V9.59899H10V19.199H6.4ZM13.2 11.199V17.599H10.8V11.199H13.2ZM10.8 10.399V9.59899H13.2V10.399H10.8ZM13.2 18.399V19.199H10.8V18.399H13.2ZM14 19.199V9.59899H17.6V19.199H14ZM20.8 11.199V17.599H18.4V11.199H20.8ZM18.4 10.399V9.59899H20.8V10.399H18.4ZM20.8 18.399V19.199H18.4V18.399H20.8ZM0.8 8.79899V7.99899H23.2V8.79899H0.8Z" fill="white"/>
<path d="M11.5977 5.99844H10.7977C10.6916 5.99844 10.5898 5.95628 10.5148 5.88128C10.4398 5.80628 10.3977 5.70452 10.3977 5.59844H9.59766C9.59766 5.91668 9.7241 6.22192 9.94914 6.44696C10.1742 6.672 10.4794 6.79844 10.7977 6.79844V7.19844H11.5977V6.79844C11.9159 6.79844 12.2211 6.672 12.4462 6.44696C12.6712 6.22192 12.7977 5.91668 12.7977 5.59844C12.7977 5.2802 12.6712 4.97496 12.4462 4.74992C12.2211 4.52488 11.9159 4.39844 11.5977 4.39844H10.7977C10.6916 4.39844 10.5898 4.35628 10.5148 4.28128C10.4398 4.20628 10.3977 4.10452 10.3977 3.99844C10.3977 3.89235 10.4398 3.79061 10.5148 3.71559C10.5898 3.64058 10.6916 3.59844 10.7977 3.59844H11.5977C11.7037 3.59844 11.8055 3.64058 11.8805 3.71559C11.9555 3.79061 11.9977 3.89235 11.9977 3.99844H12.7977C12.7977 3.68018 12.6712 3.37495 12.4462 3.14991C12.2211 2.92487 11.9159 2.79844 11.5977 2.79844V2.39844H10.7977V2.79844C10.4794 2.79844 10.1742 2.92487 9.94914 3.14991C9.7241 3.37495 9.59766 3.68018 9.59766 3.99844C9.59766 4.31668 9.7241 4.62192 9.94914 4.84696C10.1742 5.072 10.4794 5.19844 10.7977 5.19844H11.5977C11.7037 5.19844 11.8055 5.2406 11.8805 5.3156C11.9555 5.3906 11.9977 5.49236 11.9977 5.59844C11.9977 5.70452 11.9555 5.80628 11.8805 5.88128C11.8055 5.95628 11.7037 5.99844 11.5977 5.99844Z" fill="white"/>
<path d="M14.3977 4.40039H13.5977V5.20039H14.3977V4.40039Z" fill="white"/>
<path d="M8.79609 4.40039H7.99609V5.20039H8.79609V4.40039Z" fill="white"/>
</g>
<defs>
<clipPath id="clip0_613_5107">
<rect width="24" height="24" fill="white"/>
</clipPath>
</defs>
</svg>
