<svg width="24" height="34" viewBox="0 0 24 34" fill="none" xmlns="http://www.w3.org/2000/svg">
<path d="M23.4545 3.78853e-08H4.90909C4.76441 -5.38258e-05 4.62559 0.05733 4.52318 0.159546L0.159545 4.52318C0.0573271 4.6256 -5.45066e-05 4.7644 3.88516e-08 4.90909V33.2727C3.88516e-08 33.4174 0.0574706 33.5562 0.159757 33.6584C0.26205 33.7607 0.400793 33.8182 0.545455 33.8182H23.4545C23.5992 33.8182 23.738 33.7607 23.8403 33.6584C23.9425 33.5562 24 33.4174 24 33.2727V0.545455C24 0.400793 23.9425 0.26205 23.8403 0.159757C23.738 0.0574671 23.5992 3.78853e-08 23.4545 3.78853e-08ZM4.36364 1.86205V4.36364H1.86205L4.36364 1.86205ZM22.9091 32.7273H1.09091V5.45455H4.90909C5.05377 5.45455 5.19252 5.39708 5.2948 5.29479C5.39707 5.1925 5.45455 5.05375 5.45455 4.90909V1.09091H22.9091V32.7273Z" fill="black"/>
<path d="M5.72514 9.81818H5.45241V8.18182H7.08878C7.23346 8.18182 7.37221 8.12434 7.47448 8.02207C7.57676 7.9198 7.63423 7.78105 7.63423 7.63636C7.63423 7.49168 7.57676 7.35293 7.47448 7.25066C7.37221 7.14839 7.23346 7.09091 7.08878 7.09091H5.45241V6.54545C5.45241 6.40077 5.39494 6.26205 5.29266 6.15976C5.19039 6.05747 5.05164 6 4.90696 6C4.76228 6 4.62353 6.05747 4.52126 6.15976C4.41898 6.26205 4.36151 6.40077 4.36151 6.54545V7.09091H4.08878C3.58246 7.09091 3.09687 7.29205 2.73885 7.65007C2.38082 8.00809 2.17969 8.49368 2.17969 9C2.17969 9.50632 2.38082 9.99191 2.73885 10.3499C3.09687 10.708 3.58246 10.9091 4.08878 10.9091H4.36151V12.5455H2.72514C2.58046 12.5455 2.44171 12.6029 2.33944 12.7052C2.23716 12.8075 2.17969 12.9462 2.17969 13.0909C2.17969 13.2356 2.23716 13.3743 2.33944 13.4766C2.44171 13.5789 2.58046 13.6364 2.72514 13.6364H4.36151V14.1818C4.36151 14.3265 4.41898 14.4652 4.52126 14.5675C4.62353 14.6698 4.76228 14.7273 4.90696 14.7273C5.05164 14.7273 5.19039 14.6698 5.29266 14.5675C5.39494 14.4652 5.45241 14.3265 5.45241 14.1818V13.6364H5.72514C6.23146 13.6364 6.71705 13.4352 7.07507 13.0772C7.4331 12.7192 7.63423 12.2336 7.63423 11.7273C7.63423 11.221 7.4331 10.7354 7.07507 10.3773C6.71705 10.0193 6.23146 9.81818 5.72514 9.81818ZM4.36151 9.81818H4.08878C3.87176 9.81818 3.66366 9.732 3.51026 9.57852C3.35678 9.42511 3.2706 9.21702 3.2706 9C3.2706 8.78298 3.35678 8.57489 3.51026 8.42148C3.66366 8.268 3.87176 8.18182 4.08878 8.18182H4.36151V9.81818ZM5.72514 12.5455H5.45241V10.9091H5.72514C5.94216 10.9091 6.15026 10.9953 6.30366 11.1487C6.45714 11.3022 6.54332 11.5102 6.54332 11.7273C6.54332 11.9443 6.45714 12.1524 6.30366 12.3058C6.15026 12.4593 5.94216 12.5455 5.72514 12.5455Z" fill="black"/>
<path d="M9.81889 9.27353H21.2734C21.4181 9.27353 21.5569 9.21605 21.6591 9.11378C21.7614 9.0115 21.8189 8.87275 21.8189 8.72807C21.8189 8.58339 21.7614 8.44464 21.6591 8.34237C21.5569 8.24009 21.4181 8.18262 21.2734 8.18262H9.81889C9.67421 8.18262 9.53546 8.24009 9.43319 8.34237C9.33091 8.44464 9.27344 8.58339 9.27344 8.72807C9.27344 8.87275 9.33091 9.0115 9.43319 9.11378C9.53546 9.21605 9.67421 9.27353 9.81889 9.27353Z" fill="black"/>
<path d="M9.81889 10.9083H21.2734C21.4181 10.9083 21.5569 10.8508 21.6591 10.7485C21.7614 10.6463 21.8189 10.5075 21.8189 10.3628C21.8189 10.2182 21.7614 10.0794 21.6591 9.97713C21.5569 9.87486 21.4181 9.81738 21.2734 9.81738H9.81889C9.67421 9.81738 9.53546 9.87486 9.43319 9.97713C9.33091 10.0794 9.27344 10.2182 9.27344 10.3628C9.27344 10.5075 9.33091 10.6463 9.43319 10.7485C9.53546 10.8508 9.67421 10.9083 9.81889 10.9083Z" fill="black"/>
<path d="M9.81889 12.545H21.2734C21.4181 12.545 21.5569 12.4875 21.6591 12.3853C21.7614 12.283 21.8189 12.1442 21.8189 11.9996C21.8189 11.8549 21.7614 11.7161 21.6591 11.6139C21.5569 11.5116 21.4181 11.4541 21.2734 11.4541H9.81889C9.67421 11.4541 9.53546 11.5116 9.43319 11.6139C9.33091 11.7161 9.27344 11.8549 9.27344 11.9996C9.27344 12.1442 9.33091 12.283 9.43319 12.3853C9.53546 12.4875 9.67421 12.545 9.81889 12.545Z" fill="black"/>
<path d="M19.0923 4.90945H21.2741C21.4188 4.90945 21.5576 4.85198 21.6599 4.74969C21.7621 4.6474 21.8196 4.50865 21.8196 4.36399V2.18217C21.8196 2.03751 21.7621 1.89877 21.6599 1.79648C21.5576 1.69419 21.4188 1.63672 21.2741 1.63672H19.0923C18.9476 1.63672 18.8089 1.69419 18.7066 1.79648C18.6044 1.89877 18.5469 2.03751 18.5469 2.18217V4.36399C18.5469 4.50865 18.6044 4.6474 18.7066 4.74969C18.8089 4.85198 18.9476 4.90945 19.0923 4.90945ZM19.6378 2.72763H20.7287V3.81854H19.6378V2.72763Z" fill="black"/>
<path d="M14.7251 4.90945H16.907C17.0516 4.90945 17.1904 4.85198 17.2927 4.74969C17.3949 4.6474 17.4524 4.50865 17.4524 4.36399V2.18217C17.4524 2.03751 17.3949 1.89877 17.2927 1.79648C17.1904 1.69419 17.0516 1.63672 16.907 1.63672H14.7251C14.5805 1.63672 14.4417 1.69419 14.3394 1.79648C14.2372 1.89877 14.1797 2.03751 14.1797 2.18217V4.36399C14.1797 4.50865 14.2372 4.6474 14.3394 4.74969C14.4417 4.85198 14.5805 4.90945 14.7251 4.90945ZM15.2706 2.72763H16.3615V3.81854H15.2706V2.72763Z" fill="black"/>
<path d="M21.2706 15.2734H2.72514C2.58046 15.2734 2.44171 15.3309 2.33944 15.4332C2.23716 15.5355 2.17969 15.6742 2.17969 15.8189V27.8189C2.17969 27.9636 2.23716 28.1023 2.33944 28.2046C2.44171 28.3069 2.58046 28.3643 2.72514 28.3643H21.2706C21.4153 28.3643 21.554 28.3069 21.6563 28.2046C21.7586 28.1023 21.8161 27.9636 21.8161 27.8189V15.8189C21.8161 15.6742 21.7586 15.5355 21.6563 15.4332C21.554 15.3309 21.4153 15.2734 21.2706 15.2734ZM20.7251 18.0007H19.0888V16.3643H20.7251V18.0007ZM10.3615 19.0916V27.2734H7.08878V19.0916H10.3615ZM7.08878 18.0007V16.3643H10.3615V18.0007H7.08878ZM11.4524 19.0916H17.9979V27.2734H11.4524V19.0916ZM11.4524 18.0007V16.3643H17.9979V18.0007H11.4524ZM5.99787 16.3643V18.0007H3.2706V16.3643H5.99787ZM3.2706 19.0916H5.99787V27.2734H3.2706V19.0916ZM19.0888 27.2734V19.0916H20.7251V27.2734H19.0888Z" fill="black"/>
<path d="M20.8063 29.4549C19.6977 28.7673 18.2874 29.1652 17.3374 29.7669C17.216 29.8437 17.0949 29.9252 16.9779 30.004C16.4617 30.3511 15.9737 30.679 15.5151 30.6075C15.2492 30.5662 14.9792 30.3822 14.6933 30.1874C14.3747 29.9701 14.0135 29.7237 13.5718 29.6169C12.5472 29.3682 11.4173 30.0457 11.154 31.0666C11.1361 31.1359 11.1321 31.2081 11.142 31.2791C11.1521 31.35 11.1759 31.4183 11.2123 31.48C11.2487 31.5417 11.2969 31.5956 11.3541 31.6387C11.4113 31.6818 11.4765 31.7131 11.5458 31.7311C11.6152 31.749 11.6874 31.753 11.7583 31.7431C11.8292 31.733 11.8975 31.7092 11.9592 31.6728C12.0209 31.6364 12.0748 31.5882 12.1179 31.531C12.161 31.4738 12.1924 31.4086 12.2103 31.3393C12.3262 30.8893 12.8633 30.5678 13.3149 30.6772C13.5636 30.7375 13.8141 30.9082 14.0793 31.0889C14.4352 31.3315 14.8387 31.6064 15.3478 31.6856C16.2291 31.8227 16.9501 31.3373 17.5869 30.9093C17.7028 30.8312 17.8126 30.7575 17.9214 30.6886C18.5921 30.2639 19.5509 29.9601 20.2315 30.3818C20.2924 30.4196 20.3601 30.445 20.4308 30.4565C20.5015 30.4681 20.5738 30.4657 20.6436 30.4493C20.7133 30.433 20.7791 30.403 20.8374 30.3612C20.8955 30.3194 20.9449 30.2666 20.9827 30.2057C21.0204 30.1448 21.0458 30.0771 21.0574 30.0064C21.069 29.9357 21.0665 29.8634 21.0502 29.7937C21.0338 29.7239 21.0039 29.6581 20.9621 29.5998C20.9203 29.5417 20.8674 29.4923 20.8065 29.4545L20.8063 29.4549Z" fill="black"/>
</svg>
