<svg width="24" height="31" viewBox="0 0 24 31" fill="none" xmlns="http://www.w3.org/2000/svg">
<path d="M23.5 31H3.5C3.36739 31 3.24021 30.9473 3.14645 30.8536C3.05268 30.7598 3 30.6326 3 30.5V27.5C3 27.3674 3.05268 27.2402 3.14645 27.1464C3.24021 27.0527 3.36739 27 3.5 27C3.63261 27 3.75979 27.0527 3.85355 27.1464C3.94732 27.2402 4 27.3674 4 27.5V30H23V4H20.5C20.3674 4 20.2402 3.94732 20.1464 3.85355C20.0527 3.75979 20 3.63261 20 3.5C20 3.36739 20.0527 3.24021 20.1464 3.14645C20.2402 3.05268 20.3674 3 20.5 3H23.5C23.6326 3 23.7598 3.05268 23.8536 3.14645C23.9473 3.24021 24 3.36739 24 3.5V30.5C24 30.6326 23.9473 30.7598 23.8536 30.8536C23.7598 30.9473 23.6326 31 23.5 31Z" fill="black"/>
<path d="M20.5 28H0.5C0.367392 28 0.240215 27.9473 0.146447 27.8536C0.0526785 27.7598 0 27.6326 0 27.5V6C2.83187e-05 5.8674 0.0527254 5.74025 0.1465 5.6465L5.6465 0.1465C5.74025 0.0527253 5.8674 2.83187e-05 6 0H20.5C20.6326 0 20.7598 0.0526784 20.8536 0.146447C20.9473 0.240215 21 0.367392 21 0.5V27.5C21 27.6326 20.9473 27.7598 20.8536 27.8536C20.7598 27.9473 20.6326 28 20.5 28ZM1 27H20V1H6.207L1 6.207V27Z" fill="black"/>
<path d="M6 6.5H0.5C0.367392 6.5 0.240215 6.44732 0.146447 6.35355C0.0526785 6.25979 0 6.13261 0 6C0 5.86739 0.0526785 5.74022 0.146447 5.64645C0.240215 5.55268 0.367392 5.5 0.5 5.5H5.5V0.5C5.5 0.367392 5.55268 0.240215 5.64645 0.146447C5.74022 0.0526784 5.86739 0 6 0C6.13261 0 6.25979 0.0526784 6.35355 0.146447C6.44732 0.240215 6.5 0.367392 6.5 0.5V6C6.5 6.13261 6.44732 6.25979 6.35355 6.35355C6.25979 6.44732 6.13261 6.5 6 6.5Z" fill="black"/>
<path d="M11.5 8.5H3.5C3.36739 8.5 3.24021 8.44732 3.14645 8.35355C3.05268 8.25979 3 8.13261 3 8C3 7.86739 3.05268 7.74021 3.14645 7.64645C3.24021 7.55268 3.36739 7.5 3.5 7.5H11.5C11.6326 7.5 11.7598 7.55268 11.8536 7.64645C11.9473 7.74021 12 7.86739 12 8C12 8.13261 11.9473 8.25979 11.8536 8.35355C11.7598 8.44732 11.6326 8.5 11.5 8.5Z" fill="black"/>
<path d="M11.5 10.501H3.5C3.36739 10.501 3.24021 10.4483 3.14645 10.3545C3.05268 10.2608 3 10.1336 3 10.001C3 9.86837 3.05268 9.74119 3.14645 9.64742C3.24021 9.55365 3.36739 9.50098 3.5 9.50098H11.5C11.6326 9.50098 11.7598 9.55365 11.8536 9.64742C11.9473 9.74119 12 9.86837 12 10.001C12 10.1336 11.9473 10.2608 11.8536 10.3545C11.7598 10.4483 11.6326 10.501 11.5 10.501Z" fill="black"/>
<path d="M15.6425 9.99912H15.125C14.7937 10.0028 14.4693 9.90444 14.1959 9.7174C13.9224 9.53036 13.7132 9.2637 13.5965 8.95362C13.5517 8.82877 13.5583 8.69123 13.6149 8.57125C13.6715 8.45128 13.7734 8.35869 13.8983 8.31387C14.0231 8.26905 14.1606 8.27566 14.2806 8.33225C14.4006 8.38884 14.4932 8.49077 14.538 8.61562C14.5847 8.73203 14.6661 8.83126 14.7711 8.89986C14.8761 8.96846 14.9996 9.00312 15.125 8.99912H15.6425C15.8444 9.01287 16.0441 8.95085 16.2027 8.8252C16.3612 8.69954 16.4672 8.51928 16.5 8.31962C16.5064 8.15805 16.453 7.9998 16.35 7.87512C16.2414 7.74446 16.0933 7.65267 15.928 7.61362L14.8425 7.35762C14.465 7.27337 14.127 7.06408 13.8833 6.76369C13.6396 6.46329 13.5046 6.0894 13.5 5.70262C13.5003 5.47534 13.5471 5.25053 13.6377 5.04207C13.7282 4.8336 13.8606 4.64593 14.0265 4.49062C14.3601 4.17347 14.8032 3.99739 15.2635 3.99912H15.875C16.2063 3.99545 16.5307 4.09381 16.8041 4.28085C17.0776 4.46789 17.2868 4.73455 17.4035 5.04462C17.4483 5.16947 17.4417 5.30702 17.3851 5.42699C17.3285 5.54697 17.2266 5.63955 17.1017 5.68437C16.9769 5.72919 16.8394 5.72258 16.7194 5.66599C16.5994 5.60941 16.5068 5.50747 16.462 5.38262C16.4153 5.26622 16.3339 5.16698 16.2289 5.09838C16.1239 5.02978 16.0004 4.99513 15.875 4.99912H15.2635C15.0599 4.99765 14.8637 5.07507 14.716 5.21512C14.6485 5.27723 14.5945 5.35256 14.5573 5.43642C14.5202 5.52029 14.5007 5.6109 14.5 5.70262C14.5051 5.86413 14.5643 6.01924 14.6683 6.14296C14.7722 6.26667 14.9148 6.3518 15.073 6.38462L16.1585 6.64062C16.536 6.73077 16.8739 6.94138 17.121 7.24062C17.3803 7.55315 17.5152 7.95032 17.5 8.35612C17.459 8.81548 17.2436 9.2417 16.8982 9.54725C16.5528 9.8528 16.1034 10.0145 15.6425 9.99912Z" fill="black"/>
<path d="M15.5 5C15.3674 5 15.2402 4.94732 15.1464 4.85355C15.0527 4.75979 15 4.63261 15 4.5V3.5C15 3.36739 15.0527 3.24021 15.1464 3.14645C15.2402 3.05268 15.3674 3 15.5 3C15.6326 3 15.7598 3.05268 15.8536 3.14645C15.9473 3.24021 16 3.36739 16 3.5V4.5C16 4.63261 15.9473 4.75979 15.8536 4.85355C15.7598 4.94732 15.6326 5 15.5 5Z" fill="black"/>
<path d="M15.5 11C15.3674 11 15.2402 10.9473 15.1464 10.8536C15.0527 10.7598 15 10.6326 15 10.5V9.5C15 9.36739 15.0527 9.24021 15.1464 9.14645C15.2402 9.05268 15.3674 9 15.5 9C15.6326 9 15.7598 9.05268 15.8536 9.14645C15.9473 9.24021 16 9.36739 16 9.5V10.5C16 10.6326 15.9473 10.7598 15.8536 10.8536C15.7598 10.9473 15.6326 11 15.5 11Z" fill="black"/>
<path d="M16.5 25H4.5C4.10218 25 3.72064 24.842 3.43934 24.5607C3.15804 24.2794 3 23.8978 3 23.5V13.5C3 13.1022 3.15804 12.7206 3.43934 12.4393C3.72064 12.158 4.10218 12 4.5 12H16.5C16.8978 12 17.2794 12.158 17.5607 12.4393C17.842 12.7206 18 13.1022 18 13.5V23.5C18 23.8978 17.842 24.2794 17.5607 24.5607C17.2794 24.842 16.8978 25 16.5 25ZM4.5 13C4.36739 13 4.24021 13.0527 4.14645 13.1464C4.05268 13.2402 4 13.3674 4 13.5V23.5C4 23.6326 4.05268 23.7598 4.14645 23.8536C4.24021 23.9473 4.36739 24 4.5 24H16.5C16.6326 24 16.7598 23.9473 16.8536 23.8536C16.9473 23.7598 17 23.6326 17 23.5V13.5C17 13.3674 16.9473 13.2402 16.8536 13.1464C16.7598 13.0527 16.6326 13 16.5 13H4.5Z" fill="black"/>
<path d="M17.5 16H3.5C3.36739 16 3.24021 15.9473 3.14645 15.8536C3.05268 15.7598 3 15.6326 3 15.5C3 15.3674 3.05268 15.2402 3.14645 15.1464C3.24021 15.0527 3.36739 15 3.5 15H17.5C17.6326 15 17.7598 15.0527 17.8536 15.1464C17.9473 15.2402 18 15.3674 18 15.5C18 15.6326 17.9473 15.7598 17.8536 15.8536C17.7598 15.9473 17.6326 16 17.5 16Z" fill="black"/>
<path d="M17.5 19H3.5C3.36739 19 3.24021 18.9473 3.14645 18.8536C3.05268 18.7598 3 18.6326 3 18.5C3 18.3674 3.05268 18.2402 3.14645 18.1464C3.24021 18.0527 3.36739 18 3.5 18H17.5C17.6326 18 17.7598 18.0527 17.8536 18.1464C17.9473 18.2402 18 18.3674 18 18.5C18 18.6326 17.9473 18.7598 17.8536 18.8536C17.7598 18.9473 17.6326 19 17.5 19Z" fill="black"/>
<path d="M17.5 22H3.5C3.36739 22 3.24021 21.9473 3.14645 21.8536C3.05268 21.7598 3 21.6326 3 21.5C3 21.3674 3.05268 21.2402 3.14645 21.1464C3.24021 21.0527 3.36739 21 3.5 21H17.5C17.6326 21 17.7598 21.0527 17.8536 21.1464C17.9473 21.2402 18 21.3674 18 21.5C18 21.6326 17.9473 21.7598 17.8536 21.8536C17.7598 21.9473 17.6326 22 17.5 22Z" fill="black"/>
<path d="M6.5 25C6.36739 25 6.24021 24.9473 6.14645 24.8536C6.05268 24.7598 6 24.6326 6 24.5V12.5C6 12.3674 6.05268 12.2402 6.14645 12.1464C6.24021 12.0527 6.36739 12 6.5 12C6.63261 12 6.75979 12.0527 6.85355 12.1464C6.94732 12.2402 7 12.3674 7 12.5V24.5C7 24.6326 6.94732 24.7598 6.85355 24.8536C6.75979 24.9473 6.63261 25 6.5 25Z" fill="black"/>
<path d="M14.4961 25C14.3635 25 14.2363 24.9473 14.1425 24.8536C14.0488 24.7598 13.9961 24.6326 13.9961 24.5V12.5C13.9961 12.3674 14.0488 12.2402 14.1425 12.1464C14.2363 12.0527 14.3635 12 14.4961 12C14.6287 12 14.7559 12.0527 14.8496 12.1464C14.9434 12.2402 14.9961 12.3674 14.9961 12.5V24.5C14.9961 24.6326 14.9434 24.7598 14.8496 24.8536C14.7559 24.9473 14.6287 25 14.4961 25Z" fill="black"/>
</svg>
